<svg width="29" height="29" viewBox="0 0 29 29" fill="none" xmlns="http://www.w3.org/2000/svg">
<path d="M6.23276 6.73784L4.46502 4.97005L0.929438 8.50553L2.69718 10.2733L6.23276 6.73784ZM10.9376 14.9784L12.7054 16.7462C13.6817 15.7699 13.6817 14.187 12.7054 13.2107L10.9376 14.9784ZM2.70498 19.6755L0.937213 21.4433L4.47275 24.9788L6.24051 23.2111L2.70498 19.6755ZM27.2158 10.286L28.9835 8.51827L25.448 4.98274L23.6802 6.75051L27.2158 10.286ZM18.983 14.9833L17.2152 13.2155C16.7464 13.6843 16.483 14.3202 16.483 14.9833C16.483 15.6463 16.7464 16.2822 17.2153 16.751L18.983 14.9833ZM23.688 23.2237L25.4558 24.9914L28.9913 21.4559L27.2235 19.6881L23.688 23.2237ZM10.2734 2.6972L8.50559 0.92943L4.97005 4.46496L6.73782 6.23273L10.2734 2.6972ZM14.9783 10.9377L13.2106 12.7055C14.1869 13.6818 15.7698 13.6818 16.7461 12.7055L14.9783 10.9377ZM23.2111 6.24049L24.9788 4.47273L21.4433 0.937194L19.6755 2.70496L23.2111 6.24049ZM14.9832 18.9831L16.7509 17.2154C15.7746 16.2391 14.1917 16.2391 13.2154 17.2154L14.9832 18.9831ZM6.75051 23.6802L4.98275 25.448L8.51828 28.9835L10.286 27.2158L6.75051 23.6802ZM19.6881 27.2236L21.4559 28.9913L24.9914 25.4558L23.2236 23.688L19.6881 27.2236ZM2.69718 10.2733L9.16983 16.7462L12.7054 13.2107L6.23276 6.73784L2.69718 10.2733ZM9.16985 13.2107L2.70498 19.6755L6.24051 23.2111L12.7054 16.7462L9.16985 13.2107ZM23.6802 6.75051L17.2152 13.2155L20.7508 16.751L27.2158 10.286L23.6802 6.75051ZM17.2153 16.751L23.688 23.2237L27.2235 19.6881L20.7508 13.2155L17.2153 16.751ZM6.73782 6.23273L13.2106 12.7055L16.7461 9.16994L10.2734 2.6972L6.73782 6.23273ZM16.7461 12.7055L23.2111 6.24049L19.6755 2.70496L13.2106 9.16994L16.7461 12.7055ZM13.2154 17.2154L6.75051 23.6802L10.286 27.2158L16.7509 20.7509L13.2154 17.2154ZM23.2236 23.688L16.7509 17.2154L13.2154 20.7509L19.6881 27.2236L23.2236 23.688Z" fill="#71C9CE"/>
</svg>
