<svg width="71" height="71" viewBox="0 0 71 71" fill="none" xmlns="http://www.w3.org/2000/svg">
<path d="M13.4051 15.0214L9.16255 10.7787L0.677148 19.2639L4.91973 23.5066L13.4051 15.0214ZM25.3441 35.4461L29.5867 39.6887C31.9298 37.3456 31.9298 33.5467 29.5868 31.2035L25.3441 35.4461ZM4.93923 47.3656L0.696588 51.6083L9.18187 60.0935L13.4245 55.8509L4.93923 47.3656ZM65.8626 23.5383L70.1053 19.2957L61.62 10.8104L57.3773 15.0531L65.8626 23.5383ZM45.4575 35.4581L41.2149 31.2155C40.0897 32.3407 39.4575 33.8669 39.4575 35.4582C39.4575 37.0495 40.0897 38.5756 41.2149 39.7008L45.4575 35.4581ZM57.3968 55.8824L61.6395 60.125L70.1247 51.6397L65.882 47.3971L57.3968 55.8824ZM23.5066 4.91979L19.264 0.677146L10.7787 9.16243L15.0213 13.4051L23.5066 4.91979ZM35.4458 25.3443L31.2032 29.5869C33.5463 31.9301 37.3453 31.9301 39.6885 29.5869L35.4458 25.3443ZM55.8509 13.4245L60.0935 9.18184L51.6083 0.696559L47.3656 4.9392L55.8509 13.4245ZM35.4579 45.4579L39.7005 41.2152C37.3573 38.8721 33.5584 38.8721 31.2152 41.2152L35.4579 45.4579ZM15.0531 57.3774L10.8104 61.6201L19.2957 70.1053L23.5383 65.8627L15.0531 57.3774ZM47.3971 65.8821L51.6398 70.1247L60.125 61.6394L55.8823 57.3968L47.3971 65.8821ZM4.91973 23.5066L21.1014 39.6887L29.5868 31.2035L13.4051 15.0214L4.91973 23.5066ZM21.1014 31.2034L4.93923 47.3656L13.4245 55.8509L29.5867 39.6887L21.1014 31.2034ZM57.3773 15.0531L41.2149 31.2155L49.7002 39.7008L65.8626 23.5383L57.3773 15.0531ZM41.2149 39.7008L57.3968 55.8824L65.882 47.3971L49.7001 31.2155L41.2149 39.7008ZM15.0213 13.4051L31.2032 29.5869L39.6885 21.1016L23.5066 4.91979L15.0213 13.4051ZM39.6885 29.5869L55.8509 13.4245L47.3656 4.9392L31.2032 21.1016L39.6885 29.5869ZM31.2152 41.2152L15.0531 57.3774L23.5383 65.8627L39.7005 49.7005L31.2152 41.2152ZM55.8823 57.3968L39.7005 41.2152L31.2153 49.7005L47.3971 65.8821L55.8823 57.3968Z" fill="#71C9CE"/>
</svg>
