<svg width="53" height="53" viewBox="0 0 53 53" fill="none" xmlns="http://www.w3.org/2000/svg">
<path d="M9.46553 9.96098C7.51294 8.00833 4.34711 8.00828 2.39446 9.96088C0.441811 11.9135 0.441764 15.0793 2.39436 17.0319L9.46553 9.96098ZM18.8752 26.4421L22.4108 29.9777C24.3634 28.0251 24.3634 24.8593 22.4108 22.9067L18.8752 26.4421ZM2.40996 35.8364C0.45734 37.789 0.45734 40.9548 2.40996 42.9074C4.36258 44.86 7.52841 44.86 9.48103 42.9074L2.40996 35.8364ZM51.4315 17.0574C53.3841 15.1048 53.3841 11.9389 51.4315 9.98631C49.4789 8.03369 46.3131 8.03369 44.3604 9.98631L51.4315 17.0574ZM34.966 26.4518L31.4305 22.9163C30.4928 23.8539 29.966 25.1257 29.966 26.4518C29.966 27.7779 30.4928 29.0497 31.4305 29.9874L34.966 26.4518ZM44.376 42.9326C46.3286 44.8852 49.4945 44.8852 51.4471 42.9326C53.3997 40.9799 53.3997 37.8141 51.447 35.8615L44.376 42.9326ZM17.5467 1.87969C15.5941 -0.0729362 12.4283 -0.0729362 10.4756 1.87969C8.52302 3.83231 8.52302 6.99813 10.4756 8.95075L17.5467 1.87969ZM26.9567 18.3607L23.4211 21.8962C25.3737 23.8489 28.5396 23.8489 30.4922 21.8962L26.9567 18.3607ZM43.4221 8.96628C45.3748 7.01366 45.3748 3.84784 43.4221 1.89522C41.4695 -0.0574057 38.3037 -0.0574057 36.3511 1.89522L43.4221 8.96628ZM26.9663 34.4516L30.5018 30.916C28.5492 28.9634 25.3834 28.9634 23.4308 30.916L26.9663 34.4516ZM10.501 43.8458C8.54841 45.7984 8.54841 48.9642 10.501 50.9169C12.4537 52.8695 15.6195 52.8695 17.5721 50.9169L10.501 43.8458ZM36.3763 50.9324C38.3289 52.885 41.4947 52.885 43.4474 50.9324C45.4 48.9797 45.3999 45.8139 43.4473 43.8613L36.3763 50.9324ZM2.39436 17.0319L15.3397 29.9776L22.4108 22.9067L9.46553 9.96098L2.39436 17.0319ZM15.3397 22.9066L2.40996 35.8364L9.48103 42.9074L22.4108 29.9777L15.3397 22.9066ZM44.3604 9.98631L31.4305 22.9163L38.5016 29.9873L51.4315 17.0574L44.3604 9.98631ZM31.4305 29.9874L44.376 42.9326L51.447 35.8615L38.5015 22.9162L31.4305 29.9874ZM10.4756 8.95075L23.4211 21.8962L30.4922 14.8252L17.5467 1.87969L10.4756 8.95075ZM30.4922 21.8962L43.4221 8.96628L36.3511 1.89522L23.4211 14.8252L30.4922 21.8962ZM23.4308 30.916L10.501 43.8458L17.5721 50.9169L30.5018 37.9871L23.4308 30.916ZM43.4473 43.8613L30.5018 30.916L23.4308 37.9871L36.3763 50.9324L43.4473 43.8613Z" fill="#71C9CE"/>
</svg>
